<?xml version="1.0" encoding="utf-8"?>
<!-- Generator: Adobe Illustrator 16.0.0, SVG Export Plug-In . SVG Version: 6.00 Build 0)  -->
<!DOCTYPE svg PUBLIC "-//W3C//DTD SVG 1.1//EN" "http://www.w3.org/Graphics/SVG/1.1/DTD/svg11.dtd">
<svg version="1.1" id="Layer_1" xmlns="http://www.w3.org/2000/svg" xmlns:xlink="http://www.w3.org/1999/xlink" x="0px" y="0px"
	 width="64px" height="64px" viewBox="0 0 64 64" enable-background="new 0 0 64 64" xml:space="preserve">
<path id="RSS_2_" display="none" fill="#FFFFFF" d="M19.976,44.254c1.087,1.086,1.748,2.559,1.752,4.199
	c-0.004,1.637-0.665,3.11-1.748,4.192l-0.004,0.002c-1.085,1.08-2.568,1.74-4.216,1.74c-1.646,0-3.125-0.662-4.209-1.742
	c-1.082-1.082-1.748-2.554-1.748-4.192c0-1.641,0.666-3.117,1.748-4.2v0.001c1.085-1.081,2.563-1.746,4.209-1.746
	C17.408,42.508,18.889,43.175,19.976,44.254z M19.976,44.253L19.976,44.253c0.002,0.001,0.002,0.001,0.002,0.001L19.976,44.253z
	 M11.551,52.647c0,0,0,0,0-0.002c-0.002,0-0.002,0-0.002,0L11.551,52.647z M9.808,24.823v8.57
	c5.594,0.003,10.886,2.201,14.846,6.167c3.959,3.953,6.148,9.253,6.157,14.867h0.003v0.016h8.605
	c-0.007-8.163-3.325-15.558-8.69-20.927C25.363,28.148,17.971,24.828,9.808,24.823z M9.823,9.562v8.565
	c19.999,0.015,36.256,16.298,36.27,36.315h8.591c-0.006-12.372-5.034-23.582-13.161-31.714C33.393,14.598,22.191,9.567,9.823,9.562z
	"/>
<path id="reddit_2_" fill="#FFFFFF" d="M43.951,33.748c0.141,0.359,0.204,0.73,0.204,1.1c0,0.742-0.256,1.463-0.687,2.052
	c-0.426,0.581-1.028,1.033-1.737,1.231h0.001c-0.006,0.002-0.012,0.002-0.016,0.004c-0.002,0-0.007,0.003-0.009,0.003
	c-0.332,0.113-0.673,0.167-1.011,0.167c-0.792,0-1.569-0.285-2.191-0.771c-0.617-0.485-1.084-1.181-1.23-2.007h-0.001
	c0-0.003,0-0.005-0.001-0.009c0-0.002,0-0.005-0.003-0.008h0.003c-0.046-0.213-0.07-0.426-0.07-0.636
	c0-0.716,0.244-1.402,0.646-1.969c0.401-0.564,0.966-1.012,1.627-1.242c0.002,0,0.004-0.001,0.004-0.001
	c0.004,0,0.004-0.003,0.006-0.003c0.375-0.139,0.77-0.208,1.16-0.208c0.711,0,1.412,0.216,2.003,0.61
	c0.584,0.388,1.058,0.957,1.296,1.665c0.002,0.004,0.002,0.008,0.004,0.012c0,0.005,0.003,0.008,0.005,0.011H43.951z M41.774,42.521
	c-0.279-0.181-0.602-0.291-0.943-0.291c-0.275,0-0.562,0.079-0.815,0.248l0,0c-2.406,1.437-5.237,2.223-8.047,2.223
	c-2.108,0-4.204-0.444-6.102-1.377l-0.009-0.005l-0.009-0.004c-0.286-0.116-0.612-0.366-0.968-0.603
	c-0.181-0.117-0.37-0.233-0.579-0.319c-0.207-0.088-0.436-0.149-0.682-0.149c-0.203,0-0.417,0.046-0.627,0.142
	c-0.011,0.004-0.021,0.008-0.032,0.013h0.001c-0.331,0.126-0.59,0.357-0.756,0.632c-0.174,0.282-0.259,0.61-0.259,0.938
	c0,0.295,0.07,0.591,0.214,0.858c0.137,0.255,0.349,0.477,0.625,0.626c2.713,1.83,5.908,2.659,9.116,2.656
	c2.893,0,5.801-0.67,8.392-1.889l0.014-0.008l0.014-0.007c0.341-0.202,0.795-0.384,1.223-0.648c0.212-0.135,0.419-0.29,0.596-0.493
	c0.178-0.201,0.32-0.45,0.401-0.744v-0.002c0.032-0.129,0.049-0.256,0.049-0.382c0-0.241-0.059-0.47-0.157-0.675
	C42.284,42.955,42.05,42.702,41.774,42.521z M22.723,38.12c0.004,0,0.01,0.002,0.017,0.005c0.346,0.126,0.703,0.188,1.057,0.188
	c0.881,0,1.738-0.36,2.387-0.949c0.647-0.59,1.091-1.426,1.091-2.377c0-0.025,0-0.051-0.001-0.079
	c0.002-0.044,0.003-0.09,0.003-0.138c0-0.944-0.438-1.783-1.079-2.375c-0.644-0.594-1.499-0.957-2.384-0.957
	c-0.236,0-0.478,0.028-0.713,0.083c-0.003,0-0.006,0.001-0.009,0.001c0,0-0.002,0-0.003,0c-1.171,0.245-2.2,1.114-2.579,2.311l0,0
	v0.001c0,0.002-0.001,0.005-0.001,0.005c-0.109,0.327-0.16,0.665-0.16,0.999c0,0.733,0.242,1.447,0.66,2.035
	c0.414,0.577,1,1.031,1.703,1.243C22.716,38.117,22.718,38.118,22.723,38.12z M59.464,29.574v0.005
	c0.008,0.12,0.01,0.238,0.01,0.356c0,1.322-0.424,2.595-1.132,3.674c-0.661,1.01-1.572,1.855-2.621,2.428
	c0.067,0.527,0.106,1.058,0.106,1.587c-0.002,2.848-0.983,5.647-2.694,7.892v0.001H53.13c-3.162,4.206-8.017,6.687-12.92,7.938
	h-0.001l-0.003,0.003c-2.615,0.635-5.311,0.959-8.005,0.959c-4.017,0-8.032-0.725-11.778-2.227l-0.001-0.004h-0.003
	c-3.884-1.6-7.584-4.145-9.854-7.873c-1.221-1.989-1.891-4.322-1.891-6.668c0-0.53,0.036-1.061,0.106-1.587
	c-1.022-0.575-1.908-1.392-2.565-2.366c-0.702-1.047-1.146-2.272-1.203-3.569v-0.004v-0.005v-0.011
	c0.001-1.815,0.79-3.535,2.015-4.803s2.899-2.096,4.694-2.096c0.025,0,0.05,0,0.075,0c0.188-0.013,0.378-0.02,0.568-0.02
	c0.902,0,1.806,0.146,2.664,0.475l0.005,0.004l0.004,0.001c0.733,0.309,1.461,0.681,2.11,1.196c0.21-0.11,0.44-0.234,0.697-0.333
	c3.934-2.329,8.505-3.228,12.961-3.486c0.039-2.208,0.31-4.518,1.386-6.54c0.897-1.68,2.452-2.988,4.306-3.441l0.007-0.004
	l0.01-0.001c0.705-0.137,1.417-0.2,2.124-0.2c1.883,0,3.743,0.446,5.483,1.142c0.771-1.163,1.871-2.071,3.162-2.58l0.012-0.007
	l0.012-0.005c0.758-0.236,1.558-0.374,2.361-0.374c0.848,0,1.701,0.155,2.501,0.512V9.54c0.001,0.003,0.002,0.003,0.002,0.003
	c0.006,0.002,0.011,0.005,0.016,0.005c1.147,0.442,2.118,1.258,2.806,2.273c0.689,1.019,1.095,2.24,1.095,3.495
	c0,0.231-0.013,0.463-0.04,0.695l-0.003,0.004c0,0.004,0,0.008-0.001,0.012c-0.135,1.622-0.956,3.045-2.119,4.06
	c-1.17,1.019-2.685,1.635-4.24,1.635c-0.25,0-0.501-0.014-0.752-0.047c-1.542-0.118-2.98-0.864-4.037-1.975
	c-1.061-1.108-1.743-2.59-1.743-4.188c0-0.078,0.007-0.157,0.009-0.233c-1.447-0.645-2.985-1.18-4.514-1.178
	c-0.221,0-0.441,0.012-0.663,0.034h-0.002c-1.145,0.11-2.208,0.832-2.723,1.869v0.001v0.003c-0.783,1.523-0.938,3.305-0.963,5.073
	c4.387,0.286,8.799,1.338,12.668,3.563h0.006l0.056,0.032c0.073,0.044,0.209,0.118,0.332,0.184c0.266-0.216,0.547-0.438,0.867-0.629
	c1.174-0.781,2.563-1.169,3.954-1.169c0.616,0,1.234,0.079,1.834,0.232h0.002l0.025,0.007c0.008,0.001,0.016,0.004,0.022,0.004
	v0.001c1.416,0.36,2.697,1.173,3.661,2.27c0.964,1.099,1.612,2.488,1.739,3.996V29.574z M46.544,15.22
	c0,0.059,0.001,0.121,0.007,0.182v0.003v0.007c0.028,0.762,0.388,1.471,0.936,1.995c0.549,0.524,1.278,0.849,2.019,0.852h0.01h0.009
	c0.054,0.004,0.107,0.004,0.16,0.004c0.746,0.001,1.487-0.321,2.044-0.843c0.559-0.524,0.926-1.238,0.955-2.007l0.001-0.003v-0.005
	c0.005-0.059,0.008-0.114,0.008-0.174c0-0.791-0.37-1.544-0.949-2.103c-0.577-0.558-1.354-0.904-2.119-0.902
	c-0.247,0-0.492,0.034-0.731,0.108l-0.008,0.001l-0.007,0.003c-0.631,0.164-1.222,0.553-1.647,1.07
	C46.803,13.923,46.544,14.559,46.544,15.22z M14.168,26.976c-0.586-0.273-1.192-0.468-1.792-0.465c-0.1,0-0.202,0.006-0.302,0.017
	H12.06l-0.014,0.001c-0.86,0.024-1.729,0.399-2.38,1c-0.652,0.6-1.084,1.408-1.117,2.3v0.008l-0.001,0.007
	c-0.006,0.072-0.008,0.145-0.008,0.213c0,0.55,0.169,1.082,0.455,1.566c0.211,0.36,0.489,0.689,0.804,0.975
	C10.804,30.398,12.375,28.529,14.168,26.976z M52.377,37.746c0-1.963-0.708-3.934-1.854-5.521c-2.286-3.181-5.832-5.255-9.521-6.411
	l-0.025-0.009c-0.708-0.217-1.424-0.409-2.145-0.574c-2.155-0.49-4.365-0.735-6.574-0.735c-2.965,0-5.929,0.438-8.768,1.314
	c-3.688,1.17-7.245,3.23-9.526,6.421v0.002c-1.156,1.593-1.833,3.571-1.833,5.541c0,0.726,0.091,1.45,0.283,2.156l0.002,0.001
	c0.415,1.583,1.227,2.996,2.278,4.229c1.051,1.233,2.339,2.286,3.694,3.145c0.3,0.186,0.602,0.363,0.91,0.537
	c3.937,2.196,8.471,3.16,12.971,3.16c0.761,0,1.527-0.026,2.284-0.082c4.532-0.374,9.084-1.712,12.763-4.445l0.002-0.003
	c1.171-0.865,2.256-1.914,3.114-3.105c0.861-1.192,1.492-2.525,1.772-3.974v-0.004l0.001-0.001
	C52.321,38.846,52.377,38.297,52.377,37.746z M55.954,29.936c-0.001-0.476-0.109-0.951-0.349-1.393L55.6,28.538l-0.002-0.007
	c-0.319-0.657-0.82-1.153-1.425-1.492c-0.604-0.34-1.311-0.513-2.02-0.513c-0.641,0-1.278,0.144-1.845,0.428
	c1.8,1.563,3.379,3.441,4.4,5.652c0.328-0.286,0.608-0.635,0.817-1.024C55.8,31.071,55.954,30.5,55.954,29.936z"/>
<path id="Facebook_3_" display="none" fill="#4D4D4D" d="M26.567,19.278c0,1.08,0,5.9,0,5.9h-4.323v7.215h4.323v21.441h8.88V32.394
	h5.959c0,0,0.558-3.459,0.828-7.243c-0.775,0-6.754,0-6.754,0s0-4.198,0-4.933c0-0.737,0.969-1.729,1.926-1.729
	c0.955,0,2.972,0,4.838,0c0-0.982,0-4.377,0-7.512c-2.492,0-5.328,0-6.578,0C26.348,10.978,26.567,18.2,26.567,19.278z"/>
<path display="none" fill="#FFFFFF" d="M56.939,16.532c-1.835,0.814-3.808,1.364-5.877,1.611c2.112-1.266,3.735-3.272,4.499-5.662
	c-1.978,1.173-4.167,2.024-6.498,2.483c-1.867-1.989-4.526-3.231-7.47-3.231c-5.651,0-10.233,4.582-10.233,10.233
	c0,0.802,0.09,1.583,0.265,2.333c-8.505-0.427-16.045-4.501-21.093-10.692c-0.881,1.511-1.385,3.269-1.385,5.145
	c0,3.55,1.806,6.683,4.552,8.518c-1.677-0.053-3.255-0.514-4.635-1.28c-0.001,0.043-0.001,0.085-0.001,0.129
	c0,4.958,3.528,9.094,8.209,10.035c-0.858,0.233-1.763,0.358-2.696,0.358c-0.66,0-1.301-0.064-1.926-0.184
	c1.303,4.065,5.082,7.024,9.56,7.106c-3.502,2.745-7.915,4.381-12.709,4.381c-0.826,0-1.641-0.048-2.441-0.143
	c4.529,2.903,9.908,4.598,15.687,4.598c18.823,0,29.116-15.594,29.116-29.116c0-0.444-0.01-0.885-0.03-1.324
	C53.833,20.386,55.567,18.584,56.939,16.532z"/>
</svg>
