<?xml version="1.0" encoding="utf-8"?>
<!-- Generator: Adobe Illustrator 16.0.0, SVG Export Plug-In . SVG Version: 6.00 Build 0)  -->
<!DOCTYPE svg PUBLIC "-//W3C//DTD SVG 1.1//EN" "http://www.w3.org/Graphics/SVG/1.1/DTD/svg11.dtd">
<svg version="1.1" id="Layer_1" xmlns="http://www.w3.org/2000/svg" xmlns:xlink="http://www.w3.org/1999/xlink" x="0px" y="0px"
	 width="64px" height="64px" viewBox="0 0 64 64" enable-background="new 0 0 64 64" xml:space="preserve">
<path id="RSS_2_" fill="#4D4D4D" d="M19.976,44.254c1.087,1.086,1.748,2.559,1.752,4.199c-0.004,1.637-0.665,3.109-1.748,4.191
	l-0.004,0.002c-1.085,1.08-2.568,1.74-4.216,1.74c-1.646,0-3.125-0.662-4.209-1.742c-1.082-1.082-1.748-2.554-1.748-4.191
	c0-1.641,0.666-3.117,1.748-4.2v0.001c1.085-1.081,2.563-1.746,4.209-1.746C17.408,42.508,18.889,43.175,19.976,44.254z
	 M19.976,44.253L19.976,44.253c0.002,0.001,0.002,0.001,0.002,0.001L19.976,44.253z M11.551,52.646c0,0,0,0,0-0.002
	c-0.002,0-0.002,0-0.002,0L11.551,52.646z M9.808,24.823v8.569c5.594,0.004,10.886,2.201,14.846,6.168
	c3.959,3.953,6.148,9.252,6.157,14.866h0.003v0.017h8.605c-0.007-8.164-3.325-15.559-8.69-20.928
	C25.363,28.148,17.971,24.828,9.808,24.823z M9.823,9.562v8.565c19.999,0.015,36.256,16.298,36.27,36.314h8.591
	C54.678,42.07,49.65,30.86,41.523,22.728C33.393,14.598,22.191,9.567,9.823,9.562z"/>
<path id="reddit_2_" display="none" fill="#4D4D4D" d="M43.951,33.748c0.141,0.359,0.203,0.73,0.203,1.1
	c0,0.742-0.256,1.463-0.687,2.053c-0.426,0.58-1.028,1.033-1.737,1.23h0.002c-0.006,0.002-0.012,0.002-0.017,0.004
	c-0.002,0-0.007,0.004-0.009,0.004c-0.332,0.112-0.673,0.166-1.012,0.166c-0.791,0-1.568-0.285-2.19-0.771
	c-0.616-0.485-1.084-1.181-1.229-2.007h-0.002c0-0.004,0-0.006,0-0.01c0-0.002,0-0.004-0.004-0.008h0.004
	c-0.047-0.213-0.07-0.426-0.07-0.636c0-0.716,0.244-1.401,0.646-1.97c0.4-0.563,0.965-1.011,1.627-1.241
	c0.002,0,0.004-0.001,0.004-0.001c0.004,0,0.004-0.003,0.006-0.003c0.375-0.139,0.77-0.208,1.16-0.208
	c0.711,0,1.412,0.216,2.002,0.61c0.584,0.388,1.059,0.957,1.297,1.666c0.002,0.004,0.002,0.008,0.004,0.012
	c0,0.005,0.003,0.008,0.005,0.011L43.951,33.748L43.951,33.748z M41.773,42.521c-0.278-0.182-0.602-0.291-0.942-0.291
	c-0.274,0-0.562,0.078-0.815,0.248l0,0c-2.406,1.437-5.236,2.223-8.047,2.223c-2.108,0-4.204-0.444-6.102-1.377l-0.009-0.006
	l-0.009-0.004c-0.286-0.115-0.612-0.365-0.968-0.603c-0.181-0.116-0.37-0.233-0.579-0.319c-0.207-0.088-0.436-0.148-0.682-0.148
	c-0.203,0-0.417,0.046-0.627,0.142c-0.011,0.005-0.021,0.009-0.032,0.013h0.001c-0.331,0.127-0.59,0.357-0.756,0.633
	c-0.174,0.281-0.259,0.609-0.259,0.938c0,0.295,0.07,0.592,0.214,0.858c0.137,0.255,0.349,0.478,0.625,0.626
	c2.713,1.83,5.908,2.658,9.116,2.656c2.893,0,5.801-0.67,8.392-1.889l0.015-0.009l0.014-0.007c0.341-0.202,0.795-0.385,1.223-0.648
	c0.212-0.135,0.419-0.289,0.596-0.492c0.178-0.201,0.32-0.45,0.401-0.744v-0.002c0.032-0.129,0.049-0.256,0.049-0.383
	c0-0.24-0.059-0.47-0.157-0.675C42.284,42.955,42.05,42.702,41.773,42.521z M22.723,38.12c0.004,0,0.01,0.002,0.017,0.005
	c0.346,0.126,0.703,0.188,1.057,0.188c0.881,0,1.738-0.359,2.387-0.948c0.647-0.591,1.091-1.427,1.091-2.378
	c0-0.024,0-0.051-0.001-0.078c0.002-0.044,0.003-0.09,0.003-0.139c0-0.943-0.438-1.783-1.079-2.375
	c-0.644-0.594-1.499-0.957-2.384-0.957c-0.236,0-0.478,0.028-0.713,0.083c-0.003,0-0.006,0.001-0.009,0.001c0,0-0.002,0-0.003,0
	c-1.171,0.245-2.2,1.114-2.579,2.311l0,0v0.001c0,0.002-0.001,0.005-0.001,0.005c-0.109,0.327-0.16,0.665-0.16,0.999
	c0,0.732,0.242,1.447,0.66,2.035c0.414,0.577,1,1.031,1.703,1.243C22.716,38.117,22.718,38.118,22.723,38.12z M59.464,29.574v0.005
	c0.009,0.12,0.011,0.238,0.011,0.356c0,1.322-0.425,2.594-1.133,3.674c-0.66,1.01-1.572,1.854-2.621,2.428
	c0.067,0.527,0.106,1.059,0.106,1.587c-0.002,2.849-0.983,5.647-2.694,7.892v0.002H53.13c-3.162,4.205-8.017,6.687-12.92,7.938
	h-0.001l-0.003,0.003c-2.615,0.635-5.312,0.959-8.005,0.959c-4.017,0-8.032-0.726-11.778-2.228l-0.001-0.004h-0.003
	c-3.884-1.6-7.584-4.145-9.854-7.873c-1.221-1.988-1.891-4.321-1.891-6.668c0-0.529,0.036-1.061,0.106-1.586
	c-1.022-0.576-1.908-1.393-2.565-2.367c-0.702-1.047-1.146-2.271-1.203-3.568v-0.004v-0.005v-0.011
	c0.001-1.815,0.79-3.535,2.015-4.803c1.225-1.268,2.899-2.096,4.694-2.096c0.025,0,0.05,0,0.075,0
	c0.188-0.013,0.378-0.02,0.568-0.02c0.902,0,1.806,0.146,2.664,0.475l0.005,0.004l0.004,0.001c0.733,0.309,1.461,0.681,2.11,1.196
	c0.21-0.11,0.44-0.234,0.697-0.333c3.934-2.329,8.505-3.228,12.961-3.486c0.039-2.208,0.31-4.518,1.386-6.54
	c0.897-1.68,2.452-2.988,4.306-3.441l0.007-0.004l0.01-0.001c0.705-0.137,1.418-0.2,2.125-0.2c1.883,0,3.742,0.446,5.482,1.142
	c0.771-1.163,1.871-2.071,3.162-2.58l0.012-0.007l0.012-0.005c0.758-0.236,1.559-0.374,2.361-0.374c0.848,0,1.701,0.155,2.501,0.512
	V9.54c0.001,0.003,0.002,0.003,0.002,0.003c0.006,0.002,0.011,0.005,0.017,0.005c1.146,0.442,2.117,1.258,2.806,2.273
	c0.688,1.019,1.095,2.24,1.095,3.495c0,0.231-0.013,0.463-0.04,0.695l-0.003,0.004c0,0.004,0,0.008-0.001,0.012
	c-0.135,1.622-0.956,3.045-2.119,4.06c-1.17,1.019-2.685,1.635-4.239,1.635c-0.25,0-0.502-0.014-0.752-0.047
	c-1.543-0.118-2.98-0.864-4.037-1.975c-1.062-1.108-1.744-2.59-1.744-4.188c0-0.078,0.008-0.157,0.01-0.233
	c-1.447-0.645-2.985-1.18-4.514-1.178c-0.222,0-0.441,0.012-0.664,0.034h-0.002c-1.145,0.11-2.207,0.832-2.723,1.869v0.001v0.003
	c-0.783,1.523-0.938,3.305-0.963,5.073c4.387,0.286,8.799,1.338,12.668,3.563h0.006l0.057,0.032
	c0.072,0.044,0.209,0.118,0.332,0.184c0.266-0.216,0.547-0.438,0.867-0.629c1.174-0.781,2.562-1.169,3.953-1.169
	c0.616,0,1.234,0.079,1.834,0.232h0.002l0.025,0.007c0.008,0.001,0.016,0.004,0.021,0.004v0.001c1.416,0.36,2.697,1.173,3.662,2.27
	c0.963,1.099,1.611,2.488,1.738,3.996L59.464,29.574L59.464,29.574z M46.544,15.22c0,0.059,0.001,0.121,0.007,0.182v0.003v0.007
	c0.028,0.762,0.389,1.471,0.936,1.995c0.55,0.524,1.279,0.849,2.02,0.852h0.01h0.01c0.054,0.004,0.106,0.004,0.16,0.004
	c0.746,0.001,1.486-0.321,2.043-0.843c0.56-0.524,0.926-1.238,0.955-2.007l0.002-0.003v-0.005c0.004-0.059,0.008-0.114,0.008-0.174
	c0-0.791-0.37-1.544-0.949-2.103c-0.577-0.558-1.354-0.904-2.119-0.902c-0.247,0-0.492,0.034-0.73,0.108l-0.008,0.001l-0.008,0.003
	c-0.631,0.164-1.222,0.553-1.646,1.07C46.803,13.923,46.544,14.559,46.544,15.22z M14.168,26.976
	c-0.586-0.273-1.192-0.468-1.792-0.465c-0.1,0-0.202,0.006-0.302,0.017H12.06l-0.014,0.001c-0.86,0.024-1.729,0.399-2.38,1
	c-0.652,0.6-1.084,1.408-1.117,2.3v0.008l-0.001,0.007c-0.006,0.072-0.008,0.146-0.008,0.213c0,0.55,0.169,1.082,0.455,1.566
	c0.211,0.36,0.489,0.689,0.804,0.975C10.804,30.398,12.375,28.529,14.168,26.976z M52.377,37.746c0-1.963-0.708-3.934-1.854-5.521
	c-2.287-3.181-5.832-5.255-9.521-6.411l-0.025-0.009c-0.707-0.217-1.424-0.409-2.145-0.574c-2.155-0.49-4.365-0.735-6.574-0.735
	c-2.965,0-5.929,0.438-8.768,1.314c-3.688,1.17-7.245,3.23-9.526,6.421v0.002c-1.156,1.593-1.833,3.572-1.833,5.541
	c0,0.727,0.091,1.451,0.283,2.156l0.002,0.002c0.415,1.582,1.227,2.995,2.278,4.229c1.051,1.232,2.339,2.285,3.694,3.145
	c0.3,0.187,0.602,0.363,0.91,0.537c3.937,2.196,8.471,3.16,12.971,3.16c0.76,0,1.527-0.025,2.284-0.082
	c4.532-0.374,9.084-1.712,12.764-4.445l0.002-0.002c1.17-0.865,2.256-1.914,3.113-3.105c0.861-1.192,1.492-2.525,1.772-3.975v-0.004
	h0.001C52.32,38.846,52.377,38.297,52.377,37.746z M55.954,29.936c-0.001-0.476-0.108-0.951-0.349-1.393L55.6,28.538l-0.002-0.007
	c-0.318-0.657-0.82-1.153-1.425-1.492c-0.604-0.34-1.312-0.513-2.021-0.513c-0.641,0-1.277,0.144-1.844,0.428
	c1.799,1.563,3.379,3.441,4.399,5.651c0.328-0.286,0.608-0.634,0.817-1.023C55.8,31.071,55.954,30.5,55.954,29.936z"/>
<path id="Facebook_3_" display="none" fill="#4D4D4D" d="M26.567,19.278c0,1.08,0,5.9,0,5.9h-4.323v7.215h4.323v21.441h8.88v-21.44
	h5.959c0,0,0.558-3.459,0.828-7.243c-0.775,0-6.754,0-6.754,0s0-4.198,0-4.933c0-0.737,0.969-1.729,1.926-1.729
	c0.955,0,2.972,0,4.838,0c0-0.982,0-4.377,0-7.512c-2.492,0-5.328,0-6.578,0C26.348,10.978,26.567,18.2,26.567,19.278z"/>
<path display="none" fill="#FFFFFF" d="M56.939,16.532c-1.836,0.814-3.809,1.364-5.877,1.611c2.111-1.266,3.734-3.272,4.498-5.662
	c-1.978,1.173-4.166,2.024-6.498,2.483c-1.867-1.989-4.525-3.231-7.47-3.231c-5.651,0-10.233,4.582-10.233,10.233
	c0,0.802,0.09,1.583,0.265,2.333c-8.505-0.427-16.045-4.501-21.093-10.692c-0.881,1.511-1.385,3.269-1.385,5.145
	c0,3.55,1.806,6.683,4.552,8.518c-1.677-0.053-3.255-0.514-4.635-1.28c-0.001,0.043-0.001,0.085-0.001,0.129
	c0,4.958,3.528,9.094,8.209,10.035c-0.858,0.232-1.763,0.357-2.696,0.357c-0.66,0-1.301-0.063-1.926-0.184
	c1.303,4.064,5.082,7.023,9.56,7.105c-3.502,2.746-7.915,4.381-12.709,4.381c-0.826,0-1.641-0.047-2.441-0.143
	c4.529,2.903,9.908,4.598,15.687,4.598c18.823,0,29.116-15.594,29.116-29.116c0-0.444-0.01-0.885-0.03-1.324
	C53.833,20.386,55.566,18.584,56.939,16.532z"/>
</svg>
