<?xml version="1.0" encoding="utf-8"?>
<!-- Generator: Adobe Illustrator 16.0.0, SVG Export Plug-In . SVG Version: 6.00 Build 0)  -->
<!DOCTYPE svg PUBLIC "-//W3C//DTD SVG 1.1//EN" "http://www.w3.org/Graphics/SVG/1.1/DTD/svg11.dtd">
<svg version="1.1" id="Layer_1" xmlns="http://www.w3.org/2000/svg" xmlns:xlink="http://www.w3.org/1999/xlink" x="0px" y="0px"
	 width="64px" height="64px" viewBox="0 0 64 64" enable-background="new 0 0 64 64" xml:space="preserve">
<path fill="#FFFFFF" d="M56.939,16.532c-1.835,0.814-3.808,1.364-5.877,1.611c2.112-1.266,3.735-3.272,4.499-5.662
	c-1.978,1.173-4.167,2.024-6.498,2.483c-1.867-1.989-4.526-3.231-7.47-3.231c-5.651,0-10.233,4.582-10.233,10.233
	c0,0.802,0.09,1.583,0.265,2.333c-8.505-0.427-16.045-4.501-21.093-10.692c-0.881,1.511-1.385,3.269-1.385,5.145
	c0,3.55,1.806,6.683,4.552,8.518c-1.677-0.053-3.255-0.514-4.635-1.28c-0.001,0.043-0.001,0.085-0.001,0.129
	c0,4.958,3.528,9.094,8.209,10.035c-0.858,0.233-1.763,0.358-2.696,0.358c-0.66,0-1.301-0.064-1.926-0.184
	c1.303,4.065,5.082,7.024,9.56,7.106c-3.502,2.745-7.915,4.381-12.709,4.381c-0.826,0-1.641-0.048-2.441-0.143
	c4.529,2.903,9.908,4.598,15.687,4.598c18.823,0,29.116-15.594,29.116-29.116c0-0.444-0.01-0.885-0.03-1.324
	C53.833,20.386,55.567,18.584,56.939,16.532z"/>
</svg>
